<?xml version="1.0" encoding="utf-8"?>
<!-- Generator: Adobe Illustrator 26.2.1, SVG Export Plug-In . SVG Version: 6.00 Build 0)  -->
<svg version="1.1" id="a" xmlns="http://www.w3.org/2000/svg" xmlns:xlink="http://www.w3.org/1999/xlink" x="0px" y="0px"
	 viewBox="0 0 5271.8 383.3" style="enable-background:new 0 0 5271.8 383.3;" xml:space="preserve">
<style type="text/css">
	.st0{fill:#F26A6B;}
	.st1{fill:#231F20;}
	.st2{font-family:'MyriadPro-Regular';}
	.st3{font-size:63.21px;}
	.st4{letter-spacing:1;}
	.st5{fill:#4C74B9;}
	.st6{fill:#FFCC33;}
	.st7{letter-spacing:-3;}
	.st8{fill:#FFFFFF;stroke:#F26A6B;stroke-width:19;stroke-miterlimit:10;}
	.st9{font-family:'Kefa-Regular';}
	.st10{font-size:130px;}
	.st11{font-size:72px;}
	.st12{letter-spacing:-2;}
	.st13{letter-spacing:-4;}
	.st14{fill:#808285;stroke:#231F20;stroke-miterlimit:10;}
	.st15{fill:#FFFFFF;}
	.st16{fill:#FFFFFF;stroke:#F26A6B;stroke-width:13;stroke-miterlimit:10;}
	.st17{fill:#FFFFFF;stroke:#7296CE;stroke-width:19;stroke-miterlimit:10;}
	.st18{fill:#FFFFFF;stroke:#7296CE;stroke-width:13;stroke-miterlimit:10;}
	.st19{fill:none;stroke:#939598;stroke-width:29;stroke-miterlimit:10;stroke-dasharray:0,0,30,20;}
	.st20{fill:#F1F2F2;stroke:#939598;stroke-width:12;stroke-miterlimit:10;}
	.st21{fill:none;stroke:#939598;stroke-width:7;stroke-miterlimit:10;}
	.st22{font-size:49px;}
	.st23{letter-spacing:-1;}
</style>
<path class="st0" d="M4117.9,173.8h421.4c1,0,1.9,0.9,1.9,1.9v38.8c0,1-0.9,1.9-1.9,1.9h-421.4c-1,0-1.9-0.9-1.9-1.9v-38.8
	C4116,174.6,4116.8,173.8,4117.9,173.8z"/>
<text transform="matrix(1 0 0 1 4168.7202 318.53)" class="st1 st2 st3 st4">K</text>
<text transform="matrix(1 0 0 1 4203.9902 318.53)" class="st1 st2 st3">a</text>
<text transform="matrix(1 0 0 1 4234.4604 318.53)" class="st1 st2 st3">n</text>
<text transform="matrix(1 0 0 1 4269.2803 318.53)" class="st1 st2 st3">t</text>
<text transform="matrix(1 0 0 1 4289.8301 318.53)" class="st1 st2 st3">o </text>
<text transform="matrix(1 0 0 1 4337.9302 318.53)" class="st1 st2 st3">R</text>
<text transform="matrix(1 0 0 1 4372.1802 318.53)" class="st1 st2 st3">oads</text>
<path class="st5" d="M3469.9,177.7h421.4c1,0,1.9,0.9,1.9,1.9v38.8c0,1-0.9,1.9-1.9,1.9h-421.4c-1,0-1.9-0.9-1.9-1.9v-38.8
	C3468,178.6,3468.8,177.7,3469.9,177.7z"/>
<text transform="matrix(1 0 0 1 3524.8101 322.49)" class="st1 st2 st3">Jo</text>
<text transform="matrix(1 0 0 1 3582.9001 322.49)" class="st1 st2 st3">h</text>
<text transform="matrix(1 0 0 1 3617.73 322.49)" class="st1 st2 st3">t</text>
<text transform="matrix(1 0 0 1 3638.27 322.49)" class="st1 st2 st3">o </text>
<text transform="matrix(1 0 0 1 3686.3701 322.49)" class="st1 st2 st3">R</text>
<text transform="matrix(1 0 0 1 3720.6301 322.49)" class="st1 st2 st3">oads</text>
<path class="st6" d="M4796.2,173.8h421.4c1,0,1.9,0.9,1.9,1.9v38.8c0,1-0.9,1.9-1.9,1.9h-421.4c-1,0-1.9-0.9-1.9-1.9v-38.8
	C4794.3,174.6,4795.2,173.8,4796.2,173.8z"/>
<text transform="matrix(1 0 0 1 4744.0801 318.65)" class="st1 st2 st3 st7">T</text>
<text transform="matrix(1 0 0 1 4772.6499 318.65)" class="st1 st2 st3">unnel </text>
<text transform="matrix(1 0 0 1 4937.6201 318.65)" class="st1 st2 st3">C</text>
<text transform="matrix(1 0 0 1 4973.5898 318.65)" class="st1 st2 st3">onne</text>
<text transform="matrix(1 0 0 1 5110.1099 318.65)" class="st1 st2 st3">c</text>
<text transform="matrix(1 0 0 1 5139.25 318.65)" class="st1 st2 st3">tions</text>
<g>
	<path class="st8" d="M915.1,41.7h87.7c21.5,0,39,17.5,39,39v143.9c0,21.5-17.5,39-39,39h-87.7c-21.5,0-39-17.5-39-39V80.7
		C876.1,59.1,893.6,41.7,915.1,41.7z"/>
	<text transform="matrix(1 0 0 1 911.4099 155.06)" class="st1 st9 st10">K</text>
	<text transform="matrix(1 0 0 1 915.71 229.83)" class="st1 st9 st11">01</text>
</g>
<text transform="matrix(1 0 0 1 813.1699 356.68)" class="st1 st2 st3 st4">K</text>
<text transform="matrix(1 0 0 1 848.4399 356.68)" class="st1 st2 st3">a</text>
<text transform="matrix(1 0 0 1 878.9099 356.68)" class="st1 st2 st3">n</text>
<text transform="matrix(1 0 0 1 913.73 356.68)" class="st1 st2 st3">t</text>
<text transform="matrix(1 0 0 1 934.28 356.68)" class="st1 st2 st3">o</text>
<text transform="matrix(1 0 0 1 968.98 356.68)" class="st1 st2 st3 st12"> </text>
<text transform="matrix(1 0 0 1 979.79 356.68)" class="st1 st2 st3 st13">T</text>
<text transform="matrix(1 0 0 1 1006.71 356.68)" class="st1 st2 st3">o</text>
<text transform="matrix(1 0 0 1 1040.97 356.68)" class="st1 st2 st3">wn</text>
<g>
	<path class="st14" d="M1658.6,0.5h156.3c17.7,0,32,14.3,32,32v230.2c0,17.7-14.3,32-32,32h-156.3c-17.7,0-32-14.3-32-32V32.5
		C1626.6,14.8,1641,0.5,1658.6,0.5z"/>
	<path class="st15" d="M1684.6,16.4H1789c25.4,0,46,20.6,46,46v170.4c0,25.4-20.6,46-46,46h-104.4c-25.4,0-46-20.6-46-46V62.4
		C1638.6,37,1659.2,16.4,1684.6,16.4z"/>
	<path class="st16" d="M1687.8,27.3h98.1c21.5,0,39,17.5,39,39v162.6c0,21.5-17.5,39-39,39h-98.1c-21.5,0-39-17.5-39-39V66.3
		C1648.8,44.8,1666.2,27.3,1687.8,27.3z"/>
	<text transform="matrix(1 0 0 1 1689.21 155.87)" class="st1 st9 st10">K</text>
	<text transform="matrix(1 0 0 1 1693.5 231.77)" class="st1 st9 st11">02</text>
</g>
<text transform="matrix(1 0 0 1 1603.13 363.47)" class="st1 st2 st3 st4">K</text>
<text transform="matrix(1 0 0 1 1638.4 363.47)" class="st1 st2 st3">a</text>
<text transform="matrix(1 0 0 1 1668.87 363.47)" class="st1 st2 st3">n</text>
<text transform="matrix(1 0 0 1 1703.6899 363.47)" class="st1 st2 st3">t</text>
<text transform="matrix(1 0 0 1 1724.24 363.47)" class="st1 st2 st3">o </text>
<text transform="matrix(1 0 0 1 1772.34 363.47)" class="st1 st2 st3">C</text>
<text transform="matrix(1 0 0 1 1808.8101 363.47)" class="st1 st2 st3">i</text>
<text transform="matrix(1 0 0 1 1823.6 363.47)" class="st1 st2 st3">t</text>
<text transform="matrix(1 0 0 1 1845.09 363.47)" class="st1 st2 st3">y</text>
<g>
	<path class="st17" d="M1265,44.5h87.7c21.5,0,39,17.5,39,39v143.9c0,21.5-17.5,39-39,39H1265c-21.5,0-39-17.5-39-39V83.5
		C1226,62,1243.4,44.5,1265,44.5z"/>
	<text transform="matrix(1 0 0 1 1287.77 157.24)" class="st1 st9 st10">J</text>
	<text transform="matrix(1 0 0 1 1265.53 241.87)" class="st1 st9 st11">01</text>
</g>
<g>
	<path class="st14" d="M1999.1,4.5h156.3c17.7,0,32,14.3,32,32v230.2c0,17.7-14.3,32-32,32h-156.3c-17.7,0-32-14.3-32-32V36.5
		C1967.1,18.9,1981.4,4.5,1999.1,4.5z"/>
	<path class="st15" d="M2025,20.5h104.4c25.4,0,46,20.6,46,46v170.4c0,25.4-20.6,46-46,46H2025c-25.4,0-46-20.6-46-46V66.5
		C1979,41.1,1999.6,20.5,2025,20.5z"/>
	<path class="st18" d="M2028.2,31.4h98.1c21.5,0,39,17.5,39,39V233c0,21.5-17.5,39-39,39h-98.1c-21.5,0-39-17.5-39-39V70.4
		C1989.2,48.8,2006.7,31.4,2028.2,31.4z"/>
	<text transform="matrix(1 0 0 1 2056.3101 149.42)" class="st1 st9 st10">J</text>
	<text transform="matrix(1 0 0 1 2033.9301 238.06)" class="st1 st9 st11">02</text>
</g>
<line class="st19" x1="2813.9" y1="199.9" x2="3245.2" y2="199.9"/>
<text transform="matrix(1 0 0 1 2860.24 320.95)" class="st1 st2 st3">M</text>
<text transform="matrix(1 0 0 1 2911.4399 320.95)" class="st1 st2 st3">a</text>
<text transform="matrix(1 0 0 1 2941.8999 320.95)" class="st1 st2 st3">g</text>
<text transform="matrix(1 0 0 1 2976.8601 320.95)" class="st1 st2 st3">net</text>
<text transform="matrix(1 0 0 1 3064.53 320.95)" class="st1 st2 st3 st12"> </text>
<text transform="matrix(1 0 0 1 3075.3401 320.95)" class="st1 st2 st3 st12">T</text>
<text transform="matrix(1 0 0 1 3103.9099 320.95)" class="st1 st2 st3">r</text>
<text transform="matrix(1 0 0 1 3124.26 320.95)" class="st1 st2 st3">ain</text>
<circle class="st20" cx="2493" cy="195.1" r="53"/>
<text transform="matrix(1 0 0 1 2371.55 334.16)" class="st1 st2 st3">Landma</text>
<text transform="matrix(1 0 0 1 2585.76 334.16)" class="st1 st2 st3">r</text>
<text transform="matrix(1 0 0 1 2606.6802 334.16)" class="st1 st2 st3">k</text>
<text transform="matrix(1 0 0 1 1164.39 356.11)" class="st1 st2 st3">Jo</text>
<text transform="matrix(1 0 0 1 1222.48 356.11)" class="st1 st2 st3">h</text>
<text transform="matrix(1 0 0 1 1257.3101 356.11)" class="st1 st2 st3">t</text>
<text transform="matrix(1 0 0 1 1277.85 356.11)" class="st1 st2 st3">o</text>
<text transform="matrix(1 0 0 1 1312.55 356.11)" class="st1 st2 st3 st12"> </text>
<text transform="matrix(1 0 0 1 1323.36 356.11)" class="st1 st2 st3 st13">T</text>
<text transform="matrix(1 0 0 1 1350.28 356.11)" class="st1 st2 st3">o</text>
<text transform="matrix(1 0 0 1 1384.54 356.11)" class="st1 st2 st3">wn</text>
<text transform="matrix(1 0 0 1 1956.04 367.51)" class="st1 st2 st3">Jo</text>
<text transform="matrix(1 0 0 1 2014.13 367.51)" class="st1 st2 st3">h</text>
<text transform="matrix(1 0 0 1 2048.96 367.51)" class="st1 st2 st3">t</text>
<text transform="matrix(1 0 0 1 2069.5 367.51)" class="st1 st2 st3">o </text>
<text transform="matrix(1 0 0 1 2117.6001 367.51)" class="st1 st2 st3">C</text>
<text transform="matrix(1 0 0 1 2154.0701 367.51)" class="st1 st2 st3">i</text>
<text transform="matrix(1 0 0 1 2168.8601 367.51)" class="st1 st2 st3">t</text>
<text transform="matrix(1 0 0 1 2190.3501 367.51)" class="st1 st2 st3">y</text>
<g>
	<path class="st8" d="M48.5,66.8h87.7c21.5,0,39,17.5,39,39v143.9c0,21.5-17.5,39-39,39H48.5c-21.5,0-39-17.5-39-39V105.8
		C9.5,84.2,27,66.8,48.5,66.8z"/>
	<text transform="matrix(1 0 0 1 44.78 180.15)" class="st1 st9 st10">K</text>
	<text transform="matrix(1 0 0 1 49.0701 254.92)" class="st1 st9 st11">01</text>
</g>
<line class="st21" x1="145" y1="128.9" x2="273.5" y2="128.9"/>
<text transform="matrix(1 0 0 1 284.5701 128.88)" class="st1 st2 st22">R</text>
<text transform="matrix(1 0 0 1 311.1299 128.88)" class="st1 st2 st22">e</text>
<text transform="matrix(1 0 0 1 335.6799 128.88)" class="st1 st2 st22">g</text>
<text transform="matrix(1 0 0 1 362.77 128.88)" class="st1 st2 st22">ion </text>
<text transform="matrix(1 0 0 1 438.72 128.88)" class="st1 st2 st22">A</text>
<text transform="matrix(1 0 0 1 468.5601 128.88)" class="st1 st2 st22">bb</text>
<text transform="matrix(1 0 0 1 524.3201 128.88)" class="st1 st2 st22">r</text>
<text transform="matrix(1 0 0 1 539.86 128.88)" class="st1 st2 st22">evi</text>
<text transform="matrix(1 0 0 1 599.4399 128.88)" class="st1 st2 st22">a</text>
<text transform="matrix(1 0 0 1 622.86 128.88)" class="st1 st2 st22">tion</text>
<line class="st21" x1="145" y1="238.8" x2="273.5" y2="238.8"/>
<text transform="matrix(1 0 0 1 283.1899 243.11)" class="st1 st2 st22">G</text>
<text transform="matrix(1 0 0 1 315.24 243.11)" class="st1 st2 st22">ame </text>
<text transform="matrix(1 0 0 1 414.6599 243.11)" class="st1 st2 st22 st23">F</text>
<text transform="matrix(1 0 0 1 437.25 243.11)" class="st1 st2 st22">irst</text>
<text transform="matrix(1 0 0 1 500.36 243.11)" class="st1 st2 st22 st23"> </text>
<text transform="matrix(1 0 0 1 508.98 243.11)" class="st1 st2 st22">V</text>
<text transform="matrix(1 0 0 1 535.54 243.11)" class="st1 st2 st22">isit O</text>
<text transform="matrix(1 0 0 1 638.24 243.11)" class="st1 st2 st22">r</text>
<text transform="matrix(1 0 0 1 653.77 243.11)" class="st1 st2 st22">der</text>
</svg>
